<svg width="1024" height="1024" viewBox="0 0 1024 1024" xmlns="http://www.w3.org/2000/svg">
  <rect x="0" y="0" width="1024" height="113.78" fill="#0D5EAF"/>
  <rect x="0" y="113.78" width="1024" height="113.78" fill="#FFFFFF"/>
  <rect x="0" y="227.56" width="1024" height="113.78" fill="#0D5EAF"/>
  <rect x="0" y="341.33" width="1024" height="113.78" fill="#FFFFFF"/>
  <rect x="0" y="455.11" width="1024" height="113.78" fill="#0D5EAF"/>
  <rect x="0" y="568.89" width="1024" height="113.78" fill="#FFFFFF"/>
  <rect x="0" y="682.67" width="1024" height="113.78" fill="#0D5EAF"/>
  <rect x="0" y="796.44" width="1024" height="113.78" fill="#FFFFFF"/>
  <rect x="0" y="910.22" width="1024" height="113.78" fill="#0D5EAF"/>

  <rect x="0" y="0" width="568.9" height="568.9" fill="#0D5EAF"/>
  <rect x="215.4" y="0" width="138.1" height="568.9" fill="#FFFFFF"/>
  <rect x="0" y="215.4" width="568.9" height="138.1" fill="#FFFFFF"/>

  <path d="M294.4 371.2 Q512 256 755.2 371.2 Q716.8 473.6 576 435.2 Q512 499.2 435.2 435.2 Q320 473.6 294.4 371.2 Z"
        fill="#FFFFFF" stroke="#14181B" stroke-width="25.6"/>

  <rect x="332.8" y="422.4" width="384" height="460.8" rx="51.2" fill="#F5B942" stroke="#14181B" stroke-width="32"/>

  <path d="M716.8 499.2 Q896 563.2 716.8 742.4" fill="none" stroke="#14181B" stroke-width="44.8"/>

  <rect x="371.2" y="576" width="76.8" height="217.6" fill="#FDECC7" opacity="0.55"/>

  <path d="M294.4 371.2 Q512 256 755.2 371.2 Q716.8 473.6 576 435.2 Q512 499.2 435.2 435.2 Q320 473.6 294.4 371.2 Z"
        fill="none" stroke="#14181B" stroke-width="25.6"/>
</svg>
